<?xml version="1.0" encoding="utf-8"?>
<!-- Generator: Adobe Illustrator 16.0.0, SVG Export Plug-In . SVG Version: 6.00 Build 0)  -->
<!DOCTYPE svg PUBLIC "-//W3C//DTD SVG 1.1//EN" "http://www.w3.org/Graphics/SVG/1.1/DTD/svg11.dtd">
<svg version="1.1" id="Layer_1" xmlns="http://www.w3.org/2000/svg" xmlns:xlink="http://www.w3.org/1999/xlink" x="0px" y="0px"
	 width="70px" height="70px" viewBox="0 0 70 70" enable-background="new 0 0 70 70" xml:space="preserve">
<g>
	<defs>
		<filter id="Adobe_OpacityMaskFilter" filterUnits="userSpaceOnUse" x="0" y="0" width="70" height="70">
			<feColorMatrix  type="matrix" values="1 0 0 0 0  0 1 0 0 0  0 0 1 0 0  0 0 0 1 0"/>
		</filter>
	</defs>
	<mask maskUnits="userSpaceOnUse" x="0" y="0" width="70" height="70" id="icon-b">
		<g filter="url(#Adobe_OpacityMaskFilter)">
			<path id="icon-a" fill="#FFFFFF" d="M4,0h61c4,0,5,1,5,5v60c0,4-1,5-5,5H4c-3,0-4-1-4-5V5C0,1,1,0,4,0z"/>
		</g>
	</mask>
	<g mask="url(#icon-b)">
		<path fill="#9B108E" d="M0,0h70v70H0V0z"/>
		<path fill="#FFFFFF" fill-opacity="0.383" d="M4,1h61c2.667,0,4.333,0.667,5,2V0H0v3C0.667,1.667,2,1,4,1z"/>
		<path opacity="0.165" enable-background="new    " d="M26.375,11.5l9.25,1.125L54,18.25l4,6.11v19.558L33.423,69H4.006
			C2.003,69,0,68.854,0,64.911V38.064l12.348-14L26.375,11.5z"/>
		<path fill-opacity="0.383" d="M4,69h61c2.667,0,4.333-1,5-3v4H0v-4C0.667,68,2,69,4,69z"/>
		<g display="none">
			<g id="Layer_1_1_" display="inline">
				<path fill="#FFFFFF" d="M35,8.281C20.246,8.281,8.281,20.246,8.281,35S20.246,61.719,35,61.719S61.719,49.754,61.719,35
					S49.754,8.281,35,8.281z M35,19.297c4.301,0,7.793,3.492,7.793,7.793c0,4.301-3.492,7.793-7.793,7.793s-7.793-3.492-7.793-7.793
					C27.207,22.789,30.699,19.297,35,19.297z M47.598,46.156c0,2.496-2.039,4.535-4.535,4.535H26.938
					c-2.496,0-4.535-2.039-4.535-4.535v-9.609c0-2.496,2.039-4.535,4.535-4.535h0.375c1.582,2.578,4.43,4.3,7.676,4.3
					s6.094-1.729,7.676-4.3h0.375c2.496,0,4.535,2.039,4.535,4.535v9.609H47.598z"/>
			</g>
			<g id="Layer_2" display="inline">
				<g>
					<path fill="#FFFFFF" d="M47.984,8.398H15.289c-3.223,0-5.859,2.637-5.859,5.859v41.484c0,3.223,2.637,5.858,5.859,5.858h32.695
						c3.223,0,5.854-2.646,5.854-5.858V14.258C53.844,11.035,51.207,8.398,47.984,8.398z M31.637,19.297
						c4.3,0,7.792,3.492,7.792,7.793c0,4.301-3.492,7.793-7.792,7.793c-4.301,0-7.793-3.492-7.793-7.793
						C23.844,22.789,27.324,19.297,31.637,19.297z M44.234,46.156c0,2.496-2.039,4.535-4.535,4.535H23.574
						c-2.496,0-4.535-2.039-4.535-4.535v-9.609c0-2.496,2.039-4.535,4.535-4.535h0.375c1.582,2.578,4.43,4.3,7.676,4.3
						s6.094-1.729,7.676-4.3h0.375c2.496,0,4.535,2.039,4.535,4.535v9.609H44.234z"/>
					<g>
						<g>
							<g>
								<g>
									<rect id="SVGID_2_" x="53.375" y="18.242" fill="#FFFFFF" width="7.207" height="32.227"/>
								</g>
								<g>
									<g>
										<g>
											<g>
												<g>
													<g>
														<g>
															<g>
																<g>
																	<g>
																		<g>
																			<g>
																				<g>
																					<defs>
																						<rect id="SVGID_1_" x="53.375" y="18.242" width="7.207" height="32.227"/>
																					</defs>
																					<clipPath id="SVGID_3_">
																						<use xlink:href="#SVGID_1_"  overflow="visible"/>
																					</clipPath>
																					<g clip-path="url(#SVGID_3_)">
																						<path fill="#FFFFFF" d="M59.41,19.063h-8.438c-0.646,0-1.185,0.527-1.185,1.172v5.391
																							c0,0.645,0.521,1.172,1.185,1.172h8.438c0.645,0,1.172-0.527,1.172-1.172v-5.391
																							C60.582,19.59,60.055,19.063,59.41,19.063z"/>
																						<path fill="#FFFFFF" d="M56.188,42.266H47.75c-0.645,0-1.172,0.527-1.172,1.172v5.396
																							c0,0.646,0.527,1.172,1.172,1.172h8.438c0.646,0,1.172-0.521,1.172-1.172v-5.396
																							C57.359,42.793,56.832,42.266,56.188,42.266z"/>
																						<path fill="#FFFFFF" d="M58.18,30.664h-8.438c-0.645,0-1.172,0.527-1.172,1.172v5.391
																							c0,0.646,0.527,1.172,1.172,1.172h8.438c0.646,0,1.172-0.521,1.172-1.172v-5.391
																							C59.352,31.191,58.824,30.664,58.18,30.664z"/>
																					</g>
																				</g>
																			</g>
																		</g>
																	</g>
																</g>
															</g>
														</g>
													</g>
												</g>
											</g>
										</g>
									</g>
								</g>
							</g>
						</g>
					</g>
				</g>
			</g>
			<g id="Layer_3" display="inline">
				<g>
					<path fill="#FFFFFF" d="M60.664,17.539h-2.402c-0.375,2.578-2.59,4.57-5.273,4.57c-2.682,0-4.897-1.992-5.271-4.57h-25.43
						c-0.375,2.578-2.59,4.57-5.273,4.57s-4.91-1.992-5.273-4.57H9.336c-0.645,0-1.172,0.527-1.172,1.172v37.734
						c0,0.645,0.527,1.172,1.172,1.172h51.328c0.645,0,1.172-0.527,1.172-1.172V18.711C61.836,18.066,61.309,17.539,60.664,17.539z
						 M23.281,25.508c3.305,0,5.988,2.684,5.988,5.988c0,3.304-2.684,5.988-5.988,5.988c-3.304,0-5.988-2.688-5.988-5.988
						C17.293,28.192,19.977,25.508,23.281,25.508z M32.961,46.156c0,1.922-1.57,3.492-3.492,3.492H17.082
						c-1.922,0-3.492-1.57-3.492-3.492v-7.383c0-1.922,1.57-3.492,3.492-3.492h0.293c1.219,1.979,3.398,3.305,5.906,3.305
						c2.508,0,4.688-1.324,5.906-3.305h0.293c1.922,0,3.492,1.57,3.492,3.492v7.383H32.961z M56.328,45.781
						c0,0.645-0.527,1.172-1.172,1.172H36.992c-0.645,0-1.172-0.527-1.172-1.172v-0.82c0-0.645,0.527-1.172,1.172-1.172h18.164
						c0.645,0,1.172,0.527,1.172,1.172V45.781z M56.328,38.164c0,0.645-0.527,1.172-1.172,1.172H36.992
						c-0.645,0-1.172-0.527-1.172-1.172v-0.82c0-0.645,0.527-1.172,1.172-1.172h18.164c0.645,0,1.172,0.527,1.172,1.172V38.164z
						 M56.328,30.547c0,0.645-0.527,1.172-1.172,1.172H36.992c-0.645,0-1.172-0.527-1.172-1.172v-0.82
						c0-0.645,0.527-1.172,1.172-1.172h18.164c0.645,0,1.172,0.527,1.172,1.172V30.547z"/>
					<path fill="#FFFFFF" d="M17.012,12.383c-2.367,0-4.277,1.91-4.277,4.277c0,2.367,1.91,4.277,4.277,4.277
						c2.367,0,4.277-1.91,4.277-4.277C21.289,14.293,19.379,12.383,17.012,12.383z M17.012,19.414c-1.523,0-2.754-1.23-2.754-2.754
						c0-1.524,1.23-2.754,2.754-2.754c1.524,0,2.754,1.229,2.754,2.754C19.766,18.184,18.535,19.414,17.012,19.414z"/>
					<path fill="#FFFFFF" d="M53.105,12.383c-2.367,0-4.277,1.91-4.277,4.277c0,2.367,1.91,4.277,4.277,4.277
						s4.271-1.91,4.271-4.277C57.382,14.293,55.473,12.383,53.105,12.383z M53.105,19.414c-1.523,0-2.754-1.23-2.754-2.754
						c0-1.524,1.229-2.754,2.754-2.754c1.521,0,2.754,1.229,2.754,2.754C55.859,18.184,54.629,19.414,53.105,19.414z"/>
				</g>
			</g>
			<g id="Layer_4" display="inline">
				<g>
					<path fill="#FFFFFF" d="M46.883,26.41h-7.5c-0.48,0-0.879,0.398-0.879,0.879l0,0c0,0.48,0.398,0.879,0.879,0.879h7.5
						c0.48,0,0.879-0.398,0.879-0.879l0,0C47.762,26.797,47.363,26.41,46.883,26.41z"/>
					<path fill="#FFFFFF" d="M46.883,23.199h-7.5c-0.48,0-0.879,0.398-0.879,0.879s0.398,0.879,0.879,0.879h7.5
						c0.48,0,0.879-0.398,0.879-0.879S47.363,23.199,46.883,23.199z"/>
					<path fill="#FFFFFF" d="M35,8.281C20.246,8.281,8.281,20.246,8.281,35S20.246,61.719,35,61.719S61.719,49.754,61.719,35
						S49.754,8.281,35,8.281z M28.086,27.734c3.34,0,6.047,2.707,6.047,6.047c0,3.34-2.707,6.047-6.047,6.047
						s-6.047-2.707-6.047-6.047C22.039,30.441,24.746,27.734,28.086,27.734z M37.871,48.582c0,1.934-1.582,3.527-3.527,3.527H21.828
						c-1.934,0-3.527-1.582-3.527-3.527v-7.465c0-1.934,1.582-3.527,3.527-3.527h0.293c1.23,2.004,3.434,3.34,5.965,3.34
						c2.531,0,4.734-1.336,5.965-3.34h0.293c1.933,0,3.527,1.582,3.527,3.527V48.582z M52.508,26.527c0,2.098-1.488,3.82-3.305,3.82
						h-7.277l-7.02,2.777l2.098-2.789h0.047c-1.816,0-3.305-1.723-3.305-3.82v-4.84c0-2.098,1.488-3.82,3.305-3.82h12.152
						c1.816,0,3.305,1.723,3.305,3.82V26.527z"/>
					<path fill="#FFFFFF" d="M46.883,20h-7.5c-0.48,0-0.879,0.398-0.879,0.879s0.398,0.879,0.879,0.879h7.5
						c0.48,0,0.879-0.398,0.879-0.879S47.363,20,46.883,20z"/>
				</g>
			</g>
			<g id="Layer_5" display="inline">
				<path fill="#FFFFFF" d="M34.883,8.164c-14.754,0-26.719,11.965-26.719,26.719s11.965,26.719,26.719,26.719
					s26.719-11.965,26.719-26.719S49.637,8.164,34.883,8.164z M29.445,22.203c3.984,0,7.219,3.234,7.219,7.219
					c0,3.985-3.234,7.219-7.219,7.219c-3.985,0-7.219-3.229-7.219-7.219C22.226,25.437,25.461,22.203,29.445,22.203z M41.105,47.082
					c0,2.309-1.896,4.207-4.207,4.207H21.98c-2.309,0-4.207-1.887-4.207-4.207v-8.895c0-2.313,1.887-4.208,4.207-4.208h0.352
					c1.465,2.391,4.102,3.984,7.113,3.984c3.011,0,5.648-1.594,7.114-3.984h0.354c2.312,0,4.207,1.887,4.207,4.208v8.895H41.105z
					 M49.344,29.129v5.988h-2.801v-5.988h-5.988v-2.801h5.988v-5.977h2.801v5.988h5.988v2.801h-5.988V29.129z"/>
			</g>
			<g id="Layer_6" display="inline">
				<path fill="#FFFFFF" d="M35,8.281C20.246,8.281,8.281,20.246,8.281,35S20.246,61.719,35,61.719S61.719,49.754,61.719,35
					S49.754,8.281,35,8.281z M29.563,22.32c3.984,0,7.219,3.234,7.219,7.219s-3.234,7.219-7.219,7.219s-7.219-3.234-7.219-7.219
					S25.578,22.32,29.563,22.32z M41.223,47.199c0,2.309-1.887,4.207-4.207,4.207H22.098c-2.309,0-4.207-1.887-4.207-4.207v-8.895
					c0-2.313,1.887-4.208,4.207-4.208h0.352c1.465,2.39,4.102,3.984,7.113,3.984s5.648-1.596,7.113-3.984h0.352
					c2.313,0,4.207,1.886,4.207,4.208v8.895H41.223z M40.742,29.258v-2.813h14.297v2.813H40.742z"/>
			</g>
			<g id="Layer_7" display="inline">
				<path fill="#FFFFFF" d="M35,8.281C20.246,8.281,8.281,20.246,8.281,35S20.246,61.719,35,61.719S61.719,49.754,61.719,35
					S49.754,8.281,35,8.281z M29.563,22.32c3.984,0,7.219,3.234,7.219,7.219s-3.234,7.219-7.219,7.219s-7.219-3.234-7.219-7.219
					S25.578,22.32,29.563,22.32z M41.223,47.199c0,2.309-1.887,4.207-4.207,4.207H22.098c-2.309,0-4.207-1.887-4.207-4.207v-8.895
					c0-2.313,1.887-4.208,4.207-4.208h0.352c1.465,2.39,4.102,3.984,7.113,3.984s5.648-1.596,7.113-3.984h0.352
					c2.313,0,4.207,1.886,4.207,4.208v8.895H41.223z M48.219,33.031l-1.992,1.992l-1.992-1.992l-4.805-4.805l1.992-1.992
					l4.805,4.805l8.121-8.121l1.992,1.992L48.219,33.031z"/>
			</g>
			<g id="Layer_8" display="inline">
				<g>
					<path fill="#FFFFFF" d="M35,8.281C20.246,8.281,8.281,20.246,8.281,35S20.246,61.719,35,61.719S61.719,49.754,61.719,35
						S49.754,8.281,35,8.281z M44.926,17.07c3.023,0,5.473,2.449,5.473,5.473s-2.438,5.473-5.473,5.473
						c-3.023,0-5.473-2.449-5.473-5.473S41.902,17.07,44.926,17.07z M40.461,36.605c0,3.021-2.449,5.473-5.473,5.473
						s-5.473-2.449-5.473-5.473c0-3.024,2.449-5.479,5.473-5.479S40.461,33.582,40.461,36.605z M25.074,17.07
						c3.023,0,5.473,2.449,5.473,5.473s-2.449,5.473-5.473,5.473c-3.024,0-5.473-2.449-5.473-5.473S22.051,17.07,25.074,17.07z
						 M16.238,35.914v-6.738c0-1.746,1.43-3.188,3.188-3.188h0.27c1.113,1.816,3.105,3.023,5.391,3.023s4.277-1.207,5.391-3.023
						h0.27c1.746,0,3.188,1.43,3.188,3.188v1.289c-2.953,0.504-5.203,3.07-5.203,6.141c0,0.896,0.188,1.734,0.527,2.496h-9.844
						C17.668,39.102,16.238,37.672,16.238,35.914z M43.836,49.742c0,1.746-1.43,3.188-3.188,3.188H29.34
						c-1.746,0-3.188-1.43-3.188-3.188v-6.738c0-1.746,1.43-3.188,3.188-3.188h0.27c1.113,1.813,3.105,3.021,5.391,3.021
						s4.276-1.207,5.392-3.021h0.271c1.746,0,3.188,1.43,3.188,3.188v6.738H43.836z M53.762,35.914c0,1.746-1.43,3.188-3.188,3.188
						h-9.82c0.34-0.762,0.527-1.604,0.527-2.496c0-3.082-2.25-5.637-5.203-6.141v-1.289c0-1.746,1.43-3.188,3.188-3.188h0.271
						c1.111,1.816,3.104,3.023,5.391,3.023s4.277-1.207,5.393-3.023h0.271c1.746,0,3.188,1.43,3.188,3.188v6.738H53.762z"/>
				</g>
			</g>
		</g>
	</g>
</g>
<circle fill="#FFFFFF" cx="35" cy="35" r="26.5"/>
<g>
	<path fill-rule="evenodd" clip-rule="evenodd" fill="#FFFFFF" d="M32.975,51.678c-5.259,0-10.518,0-15.788,0
		c0-11.812,0-23.623,0-35.5c6.025,0,12.06,0,18.095,0c-0.035,0.324-0.069,0.647-0.104,0.972c0.327-0.005,0.654-0.01,0.981-0.015
		c-0.056-0.319-0.111-0.638-0.168-0.957c5.621,0,11.242,0,16.863,0c0,11.833,0,23.666,0,35.5c-5.325,0-10.65,0-15.976,0
		c0.673-0.483,1.179-1.052,1.09-1.968c-0.014-0.139,0.134-0.296,0.216-0.439c0.32-0.564,0.831-1.095,0.936-1.696
		c0.515-2.953,1.663-5.585,3.602-7.88c0.628-0.744,1.218-1.527,1.758-2.337c1.139-1.711,1.751-3.613,1.801-5.669
		c0.117-4.931-2.802-9.227-7.389-10.923c-4.581-1.694-9.748-0.311-12.827,3.471c-1.884,2.314-2.714,4.968-2.475,8.018
		c0.395-0.116,0.703-0.206,1.045-0.307c0-0.263-0.004-0.498,0.001-0.733c0.094-4.222,2.672-7.902,6.559-9.363
		c4.053-1.523,8.459-0.478,11.356,2.694c3.438,3.766,3.57,9.048,0.151,13.361c-1.951,2.463-3.66,5-4.426,8.086
		c-0.011,0.045-0.076,0.077-0.117,0.115c-2.184,0-4.365,0-6.533,0c-0.364-1.006-0.742-1.966-1.059-2.946
		c-0.262-0.809-0.714-0.886-1.315-0.545c0.458,1.485,0.94,2.906,1.327,4.354c0.233,0.875,0.185,1.849,1.144,2.371
		c0.092,0.051,0.148,0.262,0.136,0.39C31.769,50.651,32.27,51.22,32.975,51.678z M32.28,37.158c-0.258-0.467-0.51-0.906-0.746-1.354
		c-0.111-0.21-0.263-0.434-0.272-0.656c-0.052-1.231-0.858-2.023-2.08-2.034c-0.193-0.001-0.432-0.096-0.57-0.229
		c-0.905-0.867-2.04-0.861-2.967,0.022c-0.125,0.119-0.327,0.217-0.495,0.222c-1.344,0.034-2.078,0.733-2.145,2.04
		c-0.01,0.204-0.095,0.447-0.23,0.595c-0.899,0.993-0.9,1.953-0.001,2.964c0.135,0.152,0.22,0.396,0.231,0.602
		c0.068,1.267,0.789,1.982,2.057,2.062c0.226,0.014,0.484,0.143,0.656,0.297c0.887,0.802,1.936,0.789,2.852-0.029
		c0.17-0.152,0.445-0.184,0.667-0.279c0.495-0.214,1.217-0.3,1.436-0.676C31.302,39.62,31.728,38.418,32.28,37.158z M34.32,39.792
		c0,0.562-0.059,1.132,0.025,1.68c0.042,0.273,0.347,0.506,0.532,0.757c0.186-0.257,0.507-0.501,0.532-0.772
		c0.072-0.791,0.09-1.6,0.013-2.39c-0.141-1.456,0.506-2.488,1.574-3.367c0.636-0.523,1.308-1.039,1.813-1.677
		c2.142-2.701,0.956-6.559-2.3-7.624c-2.236-0.731-4.895,0.288-5.845,2.29c-0.111,0.234,0.063,0.605,0.104,0.913
		c0.267-0.108,0.552-0.187,0.793-0.336c0.137-0.084,0.195-0.289,0.3-0.432c1.111-1.51,3.156-2,4.833-1.161
		c2.646,1.324,2.862,4.64,0.329,6.566C35.145,35.668,33.9,37.295,34.32,39.792z M20.969,26.233
		c-0.252,0.468-0.522,0.753-0.517,1.033c0.004,0.2,0.379,0.392,0.588,0.587c0.184-0.269,0.459-0.521,0.515-0.814
		C21.588,26.867,21.271,26.628,20.969,26.233z M30.321,16.692c-0.338,0.342-0.634,0.538-0.753,0.812
		c-0.047,0.108,0.381,0.584,0.451,0.555c0.306-0.128,0.597-0.351,0.805-0.611C30.871,17.389,30.562,17.045,30.321,16.692z
		 M40.905,17.211c-0.258,0.381-0.572,0.688-0.515,0.793c0.144,0.266,0.429,0.515,0.713,0.619c0.115,0.042,0.566-0.402,0.536-0.467
		C41.497,17.857,41.237,17.613,40.905,17.211z M20.751,31.921c-0.107-0.006-0.214-0.012-0.321-0.018
		c-0.141,0.238-0.423,0.5-0.387,0.706c0.048,0.272,0.347,0.5,0.537,0.747c0.174-0.194,0.482-0.383,0.49-0.585
		C21.083,32.492,20.869,32.205,20.751,31.921z M49.793,34.059c-0.333-0.261-0.645-0.597-0.724-0.548
		c-0.258,0.155-0.537,0.429-0.594,0.702c-0.033,0.159,0.345,0.402,0.538,0.608C49.238,34.601,49.463,34.381,49.793,34.059z
		 M28.636,18.58c-0.457-0.271-0.758-0.564-0.885-0.502c-0.292,0.144-0.5,0.46-0.741,0.707c0.185,0.152,0.409,0.46,0.546,0.426
		C27.872,19.131,28.144,18.884,28.636,18.58z M49.303,32.427c0.292-0.494,0.551-0.737,0.542-0.971
		c-0.01-0.246-0.275-0.481-0.429-0.722c-0.211,0.22-0.537,0.413-0.596,0.668C48.771,31.615,49.038,31.899,49.303,32.427z
		 M25.529,19.37c-0.327,0.428-0.591,0.678-0.713,0.984c-0.041,0.102,0.387,0.522,0.422,0.501c0.295-0.177,0.602-0.388,0.783-0.668
		C26.08,20.096,25.78,19.771,25.529,19.37z M23.606,21.336c-0.333,0.467-0.603,0.724-0.694,1.033
		c-0.035,0.12,0.333,0.358,0.519,0.543c0.227-0.23,0.53-0.428,0.648-0.705C24.138,22.067,23.861,21.784,23.606,21.336z
		 M48.959,36.698c-0.331-0.26-0.632-0.6-0.726-0.55c-0.271,0.144-0.555,0.416-0.638,0.695c-0.041,0.141,0.345,0.406,0.537,0.616
		C48.372,37.24,48.61,37.021,48.959,36.698z M43.777,43.027c-0.424-0.295-0.684-0.598-0.825-0.55
		c-0.284,0.097-0.544,0.356-0.721,0.613c-0.04,0.059,0.342,0.567,0.461,0.543C43.007,43.567,43.283,43.322,43.777,43.027z
		 M48.021,23.611c-0.401-0.337-0.644-0.6-0.942-0.749c-0.072-0.036-0.507,0.382-0.475,0.452c0.143,0.307,0.365,0.602,0.63,0.809
		C47.297,24.173,47.637,23.868,48.021,23.611z M22.868,24.52c-0.373-0.269-0.66-0.585-0.769-0.533
		c-0.267,0.129-0.524,0.398-0.636,0.672c-0.046,0.115,0.371,0.577,0.434,0.549C22.198,25.08,22.449,24.835,22.868,24.52z
		 M39.354,17.155c-0.47-0.279-0.733-0.554-1-0.556c-0.203-0.002-0.409,0.342-0.613,0.531c0.248,0.196,0.473,0.48,0.753,0.554
		C38.659,17.729,38.913,17.441,39.354,17.155z M44.34,19.564c-0.473-0.329-0.732-0.597-1.042-0.682
		c-0.126-0.035-0.361,0.329-0.547,0.511c0.233,0.227,0.434,0.533,0.712,0.649C43.605,20.102,43.89,19.823,44.34,19.564z
		 M48.985,29.394c0.108,0,0.217,0,0.325,0.001c0.126-0.242,0.373-0.5,0.344-0.722c-0.032-0.252-0.313-0.473-0.484-0.707
		c-0.195,0.202-0.531,0.393-0.547,0.608C48.604,28.836,48.853,29.119,48.985,29.394z M21.369,29.916
		c-0.401-0.327-0.637-0.66-0.824-0.634c-0.211,0.029-0.513,0.371-0.527,0.592c-0.014,0.221,0.279,0.461,0.438,0.693
		C20.698,30.394,20.941,30.221,21.369,29.916z M45.913,41.188c-0.44-0.251-0.765-0.535-0.86-0.472
		c-0.278,0.184-0.465,0.507-0.688,0.774c0.187,0.148,0.433,0.457,0.549,0.415C45.218,41.794,45.466,41.527,45.913,41.188z
		 M48.337,24.996c-0.251,0.465-0.515,0.733-0.462,0.906c0.084,0.279,0.376,0.494,0.58,0.736c0.173-0.217,0.495-0.444,0.481-0.649
		C48.918,25.717,48.638,25.463,48.337,24.996z M32.875,17.695c0.316-0.401,0.638-0.634,0.624-0.844
		c-0.013-0.19-0.399-0.503-0.608-0.494c-0.227,0.011-0.566,0.304-0.615,0.527C32.237,17.056,32.573,17.31,32.875,17.695z
		 M46.712,40.14c0.315-0.476,0.566-0.736,0.654-1.043c0.037-0.13-0.269-0.358-0.419-0.542c-0.254,0.233-0.569,0.432-0.731,0.717
		C46.153,39.38,46.442,39.688,46.712,40.14z M45.393,20.385c-0.259,0.412-0.557,0.696-0.499,0.832
		c0.115,0.277,0.396,0.52,0.669,0.671c0.068,0.039,0.545-0.379,0.511-0.481C45.97,21.094,45.711,20.834,45.393,20.385z M21.286,36.2
		c0.066-0.529,0.117-0.934,0.168-1.338c-0.259,0.019-0.66-0.062-0.752,0.072C20.368,35.414,20.61,35.787,21.286,36.2z M34.84,44.669
		c0.288-0.352,0.588-0.561,0.571-0.739c-0.02-0.204-0.294-0.461-0.512-0.535c-0.108-0.037-0.465,0.271-0.481,0.444
		C34.399,44.046,34.625,44.275,34.84,44.669z"/>
	<path fill-rule="evenodd" clip-rule="evenodd" d="M32.975,51.678c-0.705-0.458-1.207-1.026-1.115-1.947
		c0.013-0.128-0.044-0.339-0.136-0.39c-0.958-0.522-0.91-1.496-1.144-2.371c-0.387-1.447-0.869-2.868-1.327-4.354
		c0.601-0.341,1.053-0.264,1.315,0.545c0.316,0.98,0.694,1.94,1.059,2.946c2.168,0,4.35,0,6.533,0
		c0.041-0.038,0.106-0.07,0.117-0.115c0.766-3.086,2.475-5.623,4.426-8.086c3.419-4.313,3.287-9.595-0.151-13.361
		c-2.896-3.172-7.303-4.217-11.356-2.694c-3.887,1.461-6.465,5.141-6.559,9.363c-0.005,0.235-0.001,0.47-0.001,0.733
		c-0.342,0.101-0.65,0.19-1.045,0.307c-0.24-3.05,0.59-5.704,2.475-8.018c3.079-3.782,8.247-5.165,12.827-3.471
		c4.587,1.697,7.506,5.992,7.389,10.923c-0.05,2.056-0.662,3.958-1.801,5.669c-0.54,0.81-1.13,1.593-1.758,2.337
		c-1.938,2.295-3.087,4.927-3.602,7.88c-0.104,0.602-0.615,1.132-0.936,1.696c-0.082,0.144-0.229,0.301-0.216,0.439
		c0.089,0.916-0.417,1.484-1.09,1.968C35.578,51.678,34.277,51.678,32.975,51.678z M31.839,47.264
		c0.109,1.045,0.12,1.063,1.05,1.066c1.387,0.006,2.774,0.009,4.162-0.002c0.888-0.006,0.938-0.08,0.868-1.064
		C35.919,47.264,33.917,47.264,31.839,47.264z M33.044,49.494c-0.205,0.765,0.076,1.099,0.821,1.088
		c0.708-0.01,1.416-0.003,2.124-0.002c0.747,0.001,0.987-0.357,0.786-1.086C35.51,49.494,34.28,49.494,33.044,49.494z"/>
	<path fill-rule="evenodd" clip-rule="evenodd" d="M35.992,16.178c0.057,0.319,0.112,0.638,0.168,0.957
		c-0.327,0.005-0.654,0.01-0.981,0.015c0.035-0.324,0.069-0.648,0.104-0.972C35.52,16.178,35.756,16.178,35.992,16.178z"/>
	<path fill-rule="evenodd" clip-rule="evenodd" d="M32.28,37.158c-0.552,1.26-0.978,2.462-1.608,3.545
		c-0.219,0.376-0.941,0.462-1.436,0.676c-0.222,0.096-0.498,0.127-0.667,0.279c-0.916,0.818-1.964,0.831-2.852,0.029
		c-0.171-0.154-0.43-0.283-0.656-0.297c-1.269-0.079-1.989-0.795-2.057-2.062c-0.011-0.206-0.096-0.449-0.231-0.602
		c-0.898-1.011-0.898-1.971,0.001-2.964c0.135-0.148,0.22-0.391,0.23-0.595c0.066-1.307,0.8-2.006,2.145-2.04
		c0.168-0.004,0.37-0.103,0.495-0.222c0.927-0.883,2.063-0.889,2.967-0.022c0.139,0.133,0.377,0.227,0.57,0.229
		c1.222,0.011,2.027,0.803,2.08,2.034c0.01,0.223,0.162,0.446,0.272,0.656C31.77,36.252,32.021,36.691,32.28,37.158z M29.667,40.417
		c0.13-0.453,0.407-0.88,0.309-1.188c-0.224-0.711-0.112-1.076,0.582-1.375c0.204-0.088,0.452-0.418,0.427-0.603
		c-0.032-0.236-0.277-0.535-0.505-0.635c-0.557-0.242-0.768-0.719-0.553-1.273c0.092-0.237,0.087-0.651-0.061-0.802
		c-0.155-0.157-0.582-0.205-0.806-0.107c-0.641,0.279-1.003,0.119-1.286-0.504c-0.104-0.23-0.403-0.507-0.621-0.514
		c-0.219-0.007-0.543,0.249-0.653,0.473c-0.304,0.619-0.643,0.875-1.336,0.52c-0.2-0.102-0.616,0.005-0.805,0.166
		c-0.135,0.116-0.149,0.521-0.059,0.728c0.26,0.598,0.062,1.063-0.539,1.317c-0.227,0.097-0.465,0.413-0.492,0.653
		c-0.021,0.182,0.244,0.498,0.452,0.585c0.673,0.278,0.835,0.693,0.546,1.375c-0.084,0.199-0.017,0.576,0.129,0.728
		c0.149,0.154,0.529,0.245,0.726,0.165c0.696-0.285,1.094-0.137,1.382,0.504c0.102,0.225,0.433,0.457,0.674,0.475
		c0.191,0.014,0.5-0.257,0.59-0.471c0.279-0.657,0.688-0.834,1.358-0.492C29.229,40.192,29.331,40.244,29.667,40.417z"/>
	<path fill-rule="evenodd" clip-rule="evenodd" d="M34.32,39.792c-0.42-2.497,0.825-4.124,2.706-5.554
		c2.533-1.927,2.316-5.242-0.329-6.566c-1.678-0.839-3.722-0.349-4.833,1.161c-0.105,0.143-0.164,0.347-0.3,0.432
		c-0.241,0.149-0.526,0.228-0.793,0.336c-0.042-0.308-0.216-0.678-0.104-0.913c0.95-2.001,3.608-3.021,5.845-2.29
		c3.256,1.064,4.441,4.922,2.3,7.624c-0.506,0.638-1.178,1.154-1.813,1.677c-1.068,0.879-1.715,1.911-1.574,3.367
		c0.077,0.79,0.059,1.599-0.013,2.39c-0.025,0.271-0.346,0.516-0.532,0.772c-0.186-0.251-0.49-0.483-0.532-0.757
		C34.261,40.924,34.32,40.354,34.32,39.792z"/>
	<path fill-rule="evenodd" clip-rule="evenodd" d="M20.969,26.233c0.302,0.395,0.619,0.633,0.586,0.806
		c-0.056,0.293-0.332,0.545-0.515,0.814c-0.209-0.195-0.583-0.387-0.588-0.587C20.447,26.987,20.717,26.702,20.969,26.233z"/>
	<path fill-rule="evenodd" clip-rule="evenodd" d="M30.321,16.692c0.241,0.353,0.55,0.697,0.503,0.756
		c-0.208,0.26-0.499,0.482-0.805,0.611c-0.07,0.029-0.498-0.447-0.451-0.555C29.687,17.23,29.982,17.034,30.321,16.692z"/>
	<path fill-rule="evenodd" clip-rule="evenodd" d="M40.905,17.211c0.332,0.402,0.592,0.646,0.734,0.944
		c0.03,0.065-0.421,0.509-0.536,0.467c-0.284-0.104-0.569-0.353-0.713-0.619C40.333,17.899,40.647,17.592,40.905,17.211z"/>
	<path fill-rule="evenodd" clip-rule="evenodd" d="M20.751,31.921c0.118,0.284,0.332,0.571,0.32,0.85
		c-0.008,0.202-0.316,0.391-0.49,0.585c-0.19-0.247-0.489-0.475-0.537-0.747c-0.037-0.206,0.246-0.468,0.387-0.706
		C20.537,31.909,20.644,31.915,20.751,31.921z"/>
	<path fill-rule="evenodd" clip-rule="evenodd" d="M49.793,34.059c-0.33,0.323-0.555,0.542-0.779,0.762
		c-0.193-0.206-0.571-0.449-0.538-0.608c0.057-0.273,0.336-0.547,0.594-0.702C49.148,33.462,49.46,33.798,49.793,34.059z"/>
	<path fill-rule="evenodd" clip-rule="evenodd" d="M28.636,18.58c-0.493,0.305-0.765,0.551-1.079,0.63
		c-0.138,0.035-0.362-0.273-0.546-0.426c0.241-0.246,0.449-0.563,0.741-0.707C27.878,18.016,28.18,18.309,28.636,18.58z"/>
	<path fill-rule="evenodd" clip-rule="evenodd" d="M49.303,32.427c-0.265-0.527-0.531-0.812-0.482-1.024
		c0.059-0.255,0.385-0.448,0.596-0.668c0.153,0.24,0.419,0.476,0.429,0.722C49.854,31.689,49.595,31.933,49.303,32.427z"/>
	<path fill-rule="evenodd" clip-rule="evenodd" d="M25.529,19.37c0.251,0.401,0.551,0.726,0.492,0.817
		c-0.181,0.28-0.488,0.491-0.783,0.668c-0.036,0.021-0.463-0.399-0.422-0.501C24.938,20.048,25.202,19.798,25.529,19.37z"/>
	<path fill-rule="evenodd" clip-rule="evenodd" d="M23.606,21.336c0.255,0.448,0.532,0.731,0.473,0.871
		c-0.118,0.277-0.421,0.475-0.648,0.705c-0.185-0.185-0.554-0.423-0.519-0.543C23.003,22.06,23.272,21.803,23.606,21.336z"/>
	<path fill-rule="evenodd" clip-rule="evenodd" d="M48.959,36.698c-0.349,0.322-0.587,0.542-0.826,0.762
		c-0.192-0.21-0.578-0.476-0.537-0.616c0.083-0.279,0.367-0.552,0.638-0.695C48.327,36.099,48.628,36.438,48.959,36.698z"/>
	<path fill-rule="evenodd" clip-rule="evenodd" d="M43.777,43.027c-0.494,0.295-0.771,0.54-1.085,0.606
		c-0.119,0.024-0.501-0.484-0.461-0.543c0.177-0.257,0.437-0.517,0.721-0.613C43.094,42.43,43.354,42.732,43.777,43.027z"/>
	<path fill-rule="evenodd" clip-rule="evenodd" d="M48.021,23.611c-0.384,0.257-0.724,0.562-0.787,0.512
		c-0.265-0.208-0.487-0.502-0.63-0.809c-0.032-0.07,0.402-0.488,0.475-0.452C47.377,23.011,47.619,23.274,48.021,23.611z"/>
	<path fill-rule="evenodd" clip-rule="evenodd" d="M22.868,24.52c-0.419,0.316-0.67,0.56-0.971,0.689
		c-0.063,0.027-0.48-0.435-0.434-0.549c0.111-0.274,0.369-0.543,0.636-0.672C22.208,23.934,22.495,24.25,22.868,24.52z"/>
	<path fill-rule="evenodd" clip-rule="evenodd" d="M39.354,17.155c-0.44,0.286-0.694,0.573-0.86,0.53
		c-0.28-0.074-0.505-0.358-0.753-0.554c0.204-0.189,0.41-0.533,0.613-0.531C38.62,16.602,38.884,16.876,39.354,17.155z"/>
	<path fill-rule="evenodd" clip-rule="evenodd" d="M44.34,19.564c-0.45,0.258-0.734,0.538-0.877,0.478
		c-0.278-0.117-0.479-0.422-0.712-0.649c0.186-0.182,0.421-0.545,0.547-0.511C43.607,18.967,43.867,19.235,44.34,19.564z"/>
	<path fill-rule="evenodd" clip-rule="evenodd" d="M48.985,29.394c-0.133-0.274-0.382-0.557-0.362-0.82
		c0.016-0.215,0.352-0.406,0.547-0.608c0.172,0.234,0.452,0.455,0.484,0.707c0.029,0.222-0.218,0.48-0.344,0.722
		C49.202,29.394,49.094,29.394,48.985,29.394z"/>
	<path fill-rule="evenodd" clip-rule="evenodd" d="M21.369,29.916c-0.427,0.305-0.67,0.478-0.914,0.651
		c-0.158-0.232-0.452-0.473-0.438-0.693c0.015-0.222,0.316-0.563,0.527-0.592C20.732,29.256,20.968,29.589,21.369,29.916z"/>
	<path fill-rule="evenodd" clip-rule="evenodd" d="M45.913,41.188c-0.447,0.339-0.695,0.605-0.999,0.718
		c-0.116,0.042-0.362-0.267-0.549-0.415c0.223-0.268,0.409-0.591,0.688-0.774C45.148,40.653,45.473,40.938,45.913,41.188z"/>
	<path fill-rule="evenodd" clip-rule="evenodd" d="M48.337,24.996c0.301,0.468,0.581,0.722,0.6,0.993
		c0.014,0.205-0.309,0.432-0.481,0.649c-0.204-0.242-0.496-0.457-0.58-0.736C47.822,25.729,48.086,25.461,48.337,24.996z"/>
	<path fill-rule="evenodd" clip-rule="evenodd" d="M32.875,17.695c-0.301-0.385-0.638-0.639-0.6-0.811
		c0.049-0.223,0.389-0.517,0.615-0.527c0.209-0.01,0.596,0.303,0.608,0.494C33.512,17.061,33.19,17.293,32.875,17.695z"/>
	<path fill-rule="evenodd" clip-rule="evenodd" d="M46.712,40.14c-0.27-0.452-0.559-0.76-0.496-0.868
		c0.162-0.285,0.478-0.483,0.731-0.717c0.15,0.184,0.456,0.412,0.419,0.542C47.278,39.403,47.027,39.664,46.712,40.14z"/>
	<path fill-rule="evenodd" clip-rule="evenodd" d="M45.393,20.385c0.318,0.449,0.577,0.709,0.681,1.022
		c0.034,0.102-0.442,0.52-0.511,0.481c-0.272-0.152-0.554-0.395-0.669-0.671C44.836,21.081,45.134,20.797,45.393,20.385z"/>
	<path fill-rule="evenodd" clip-rule="evenodd" d="M21.286,36.2c-0.676-0.413-0.918-0.786-0.584-1.266
		c0.093-0.134,0.493-0.054,0.752-0.072C21.403,35.267,21.353,35.671,21.286,36.2z"/>
	<path fill-rule="evenodd" clip-rule="evenodd" d="M34.84,44.669c-0.215-0.394-0.44-0.623-0.422-0.83
		c0.016-0.173,0.373-0.481,0.481-0.444c0.218,0.074,0.493,0.331,0.512,0.535C35.428,44.108,35.128,44.317,34.84,44.669z"/>
	<path fill-rule="evenodd" clip-rule="evenodd" fill="#FFFFFF" d="M31.839,47.264c2.078,0,4.08,0,6.08,0
		c0.07,0.984,0.02,1.059-0.868,1.064c-1.388,0.011-2.775,0.008-4.162,0.002C31.959,48.326,31.948,48.309,31.839,47.264z"/>
	<path fill-rule="evenodd" clip-rule="evenodd" fill="#FFFFFF" d="M33.044,49.494c1.235,0,2.465,0,3.731,0
		c0.201,0.729-0.039,1.087-0.786,1.086c-0.708-0.001-1.416-0.008-2.124,0.002C33.121,50.593,32.84,50.259,33.044,49.494z"/>
	<path fill-rule="evenodd" clip-rule="evenodd" fill="#FFFFFF" d="M29.667,40.417c-0.336-0.173-0.438-0.225-0.539-0.276
		c-0.671-0.342-1.08-0.165-1.358,0.492c-0.09,0.214-0.399,0.484-0.59,0.471c-0.241-0.018-0.572-0.25-0.674-0.475
		c-0.289-0.641-0.686-0.789-1.382-0.504c-0.197,0.08-0.576-0.011-0.726-0.165c-0.146-0.151-0.214-0.528-0.129-0.728
		c0.29-0.682,0.127-1.097-0.546-1.375c-0.208-0.087-0.472-0.403-0.452-0.585c0.027-0.24,0.265-0.557,0.492-0.653
		c0.601-0.254,0.799-0.719,0.539-1.317c-0.09-0.207-0.077-0.611,0.059-0.728c0.189-0.161,0.605-0.268,0.805-0.166
		c0.693,0.355,1.032,0.099,1.336-0.52c0.11-0.224,0.434-0.479,0.653-0.473c0.218,0.007,0.517,0.284,0.621,0.514
		c0.283,0.623,0.645,0.783,1.286,0.504c0.224-0.098,0.651-0.05,0.806,0.107c0.147,0.15,0.152,0.565,0.061,0.802
		c-0.215,0.554-0.004,1.031,0.553,1.273c0.228,0.1,0.473,0.398,0.505,0.635c0.025,0.185-0.223,0.515-0.427,0.603
		c-0.694,0.299-0.806,0.664-0.582,1.375C30.074,39.537,29.797,39.964,29.667,40.417z M27.112,35.325
		c-1.052,0.009-1.913,0.857-1.926,1.901c-0.014,1.06,0.91,1.984,1.969,1.97c1.04-0.015,1.904-0.882,1.916-1.923
		C29.083,36.184,28.21,35.316,27.112,35.325z"/>
	<path fill-rule="evenodd" clip-rule="evenodd" d="M27.112,35.325c1.098-0.009,1.971,0.858,1.958,1.948
		c-0.012,1.041-0.875,1.908-1.916,1.923c-1.059,0.015-1.983-0.91-1.969-1.97C25.199,36.183,26.06,35.334,27.112,35.325z
		 M28.083,37.459c0.003-0.123,0.006-0.247,0.009-0.371c-0.32-0.222-0.664-0.644-0.956-0.61c-0.301,0.034-0.701,0.479-0.769,0.805
		c-0.041,0.198,0.453,0.701,0.73,0.719C27.413,38.022,27.754,37.656,28.083,37.459z"/>
	<path fill-rule="evenodd" clip-rule="evenodd" fill="#FFFFFF" d="M28.083,37.459c-0.33,0.197-0.67,0.563-0.985,0.542
		c-0.277-0.018-0.771-0.521-0.73-0.719c0.068-0.325,0.468-0.771,0.769-0.805c0.292-0.033,0.635,0.389,0.956,0.61
		C28.089,37.212,28.086,37.336,28.083,37.459z"/>
</g>
</svg>
